PathFileType	4	(X/Y/Z)	/Users/itak/Documents/Research/Walk-IL/dataset/trc/00374_00011.trc
DataRate	CameraRate	NumFrames	NumMarkers	Units	OrigDataRate	OrigDataStartFrame	OrigNumFrames
100.000000	100.000000	4	54	mm	100.000000	332	532
Frame#	Time	RPSI			LPSI			L3			STRN			T10			C7			CLAV			RBAK			LBAK			LSHO			LUPA			LAEL			LAOL			LWTS			LWPS			LFRA			LIFD			LHPS			LHTS			RSHO			RUPA			RAEL			RAOL			RWTS			RWPS			RFRA			RIFD			RHTS			RHPS			RBHD			LFHD			RFHD			LBHD			LHIP			RHIP			RASI			LASI			LKNE			LTHI			LANK			LTIP			LTOE			LMT1			LMT5			LHEE			RKNE			RTHI			RANK			RTIP			RTOE			RMT1			RMT5			RHEE			*53			
		X1	Y1	Z1	X2	Y2	Z2	X3	Y3	Z3	X4	Y4	Z4	X5	Y5	Z5	X6	Y6	Z6	X7	Y7	Z7	X8	Y8	Z8	X9	Y9	Z9	X10	Y10	Z10	X11	Y11	Z11	X12	Y12	Z12	X13	Y13	Z13	X14	Y14	Z14	X15	Y15	Z15	X16	Y16	Z16	X17	Y17	Z17	X18	Y18	Z18	X19	Y19	Z19	X20	Y20	Z20	X21	Y21	Z21	X22	Y22	Z22	X23	Y23	Z23	X24	Y24	Z24	X25	Y25	Z25	X26	Y26	Z26	X27	Y27	Z27	X28	Y28	Z28	X29	Y29	Z29	X30	Y30	Z30	X31	Y31	Z31	X32	Y32	Z32	X33	Y33	Z33	X34	Y34	Z34	X35	Y35	Z35	X36	Y36	Z36	X37	Y37	Z37	X38	Y38	Z38	X39	Y39	Z39	X40	Y40	Z40	X41	Y41	Z41	X42	Y42	Z42	X43	Y43	Z43	X44	Y44	Z44	X45	Y45	Z45	X46	Y46	Z46	X47	Y47	Z47	X48	Y48	Z48	X49	Y49	Z49	X50	Y50	Z50	X51	Y51	Z51	X52	Y52	Z52	X53	Y53	Z53	X54	Y54	Z54	

333	3.32	25.78256607055664	940.3812866210938	178.3713073730469	133.7553405761719	957.9011840820312	108.6996459960938	84.77716827392578	1015.887451171875	139.9971923828125	200.2836151123047	1180.591186523438	355.7677917480469	104.7344360351562	1134.1298828125	128.1470794677734	149.0631561279297	1375.088012695312	178.37548828125	190.4475402832031	1309.269287109375	323.9792785644531	68.41284942626953	1238.714477539062	144.7861022949219	240.2761383056641	1339.751953125	130.8003692626953	316.6219177246094	1356.122192382812	196.3040771484375	394.2498779296875	1251.690795898438	157.2063903808594	489.3362426757812	1073.0234375	182.9879302978516	422.9852905273438	1025.738647460938	156.8318176269531	588.001953125	883.0056762695312	327.4201965332031	619.5342407226562	872.9203491210938	266.0381164550781	541.5255737304688	985.2247924804688	207.6696166992188	663.17529296875	741.379638671875	362.8189392089844	644.9957275390625	809.8991088867188	279.3447265625	641.3053588867188	823.5991821289062	342.3608703613281	11.45455360412598	1360.49951171875	277.6096496582031	-57.26482009887695	1305.73828125	271.6226806640625	-122.2650985717773	1057.822387695312	200.3981170654297	-34.39440155029297	1046.2705078125	167.3963317871094	-128.9367218017578	804.3516235351562	239.7707214355469	-194.1812133789062	815.698486328125	199.8310394287109	-146.5804748535156	991.0653686523438	204.8013458251953	-171.1372222900391	641.8579711914062	195.6322479248047	-166.5542449951172	703.6010131835938	232.6544494628906	-209.2953948974609	733.3036499023438	185.2672576904297	94.01607513427734	1581.93408203125	277.7135314941406	245.7701110839844	1553.502807617188	416.4729614257812	145.6409606933594	1553.698120117188	429.0607604980469	231.3222808837891	1584.0234375	233.0237121582031	270.886474609375	904.4309692382812	112.1724853515625	-12.23119926452637	879.131103515625	304.9391174316406	81.97443389892578	910.5868530273438	364.5659484863281	291.3909912109375	916.7445068359375	248.0462799072266	233.3800506591797	451.3485717773438	82.09175872802734	260.9893188476562	586.892333984375	103.4919204711914	98.08367919921875	55.94136047363281	-58.3773193359375	178.3499145507812	246.6352386474609	0.5440422296524048	210.13623046875	37.55488204956055	121.7606353759766	130.6555023193359	27.04105567932129	106.927375793457	197.7789459228516	38.68107604980469	14.08802032470703	28.09634399414062	58.12955856323242	-29.66396331787109	154.3447265625	440.6427917480469	413.7803649902344	56.9924201965332	684.4542236328125	398.1386413574219	282.0841979980469	44.25399017333984	464.0635681152344	196.9375915527344	338.02880859375	448.2808227539062	375.2955017089844	112.2774276733398	624.8047485351562	403.4992370605469	93.52169036865234	564.2811889648438	290.6637878417969	59.22391891479492	565.5413818359375	312.0102844238281	40.05512619018555	401.3402709960938	nan	nan	nan	
334	3.33	31.04387855529785	938.6652221679688	186.2120513916016	138.8097534179688	956.5900268554688	116.3309173583984	89.87123870849609	1014.561889648438	147.9071960449219	205.2704467773438	1178.849487304688	363.6144714355469	110.037956237793	1132.558837890625	135.9301452636719	154.1386108398438	1373.63671875	186.3475799560547	195.3419647216797	1307.605590820312	332.0296936035156	73.64716339111328	1237.190673828125	152.3798065185547	245.4187469482422	1338.410888671875	138.7703857421875	321.6581115722656	1354.552612304688	204.4988555908203	399.1608276367188	1249.990356445312	165.6582794189453	493.967041015625	1071.379028320312	192.1141204833984	427.7318725585938	1023.904296875	165.628662109375	591.5830078125	883.2221069335938	339.1381225585938	623.8424682617188	872.4288330078125	278.2510070800781	546.1377563476562	984.00244140625	217.7688598632812	666.5762329101562	742.3223876953125	377.3810424804688	649.2236328125	809.5870971679688	292.72216796875	644.7705078125	824.1580200195312	355.490966796875	16.2800121307373	1358.749145507812	285.287109375	-52.31591033935547	1303.7197265625	278.9329833984375	-115.7241058349609	1055.71337890625	206.5068969726562	-27.57204818725586	1044.586791992188	174.1777954101562	-123.0081558227539	801.968017578125	243.4129943847656	-187.9892883300781	814.00244140625	203.16552734375	-140.1043243408203	989.0895385742188	210.3206481933594	-164.9307861328125	640.2249755859375	195.6604309082031	-160.4546813964844	701.2520141601562	234.0386047363281	-203.052490234375	731.8422241210938	186.97021484375	98.89498901367188	1580.371704101562	285.2515258789062	250.2042541503906	1552.179931640625	424.5399780273438	150.0317993164062	1552.32470703125	436.7919311523438	236.3245391845703	1582.503784179688	241.0308990478516	275.972900390625	903.2548217773438	119.1664428710938	-6.370287895202637	877.0189819335938	312.7243957519531	87.9678955078125	908.6215209960938	372.1781005859375	297.2779846191406	915.3850708007812	255.0633392333984	237.1030578613281	450.9426574707031	86.39228820800781	265.0936279296875	586.2058715820312	108.5704498291016	98.68507385253906	57.748046875	-58.14929962158203	180.4140930175781	247.2462921142578	2.973624467849731	210.3165435791016	37.42282867431641	121.9003829956055	130.7670745849609	27.21407890319824	106.9951858520508	198.0990600585938	38.98271560668945	14.28423500061035	28.63261222839355	60.39198303222656	-29.56617736816406	160.1498413085938	438.5947570800781	420.5800476074219	63.15737915039062	682.2648315429688	405.2425537109375	289.5793151855469	43.88084030151367	475.8844604492188	202.6976013183594	336.9756164550781	456.0229797363281	380.4144592285156	114.2596130371094	637.076171875	409.4848022460938	95.03810882568359	577.11328125	296.687255859375	60.04023742675781	577.4461059570312	320.25732421875	39.18438339233398	413.5818786621094	nan	nan	nan	
335	3.34	36.33575057983398	937.0185546875	194.1956329345703	143.9188079833984	955.3179931640625	124.1438064575195	94.97779083251953	1013.282470703125	155.947265625	210.1878967285156	1177.181518554688	371.6554870605469	115.3087463378906	1131.044555664062	143.9151306152344	159.0773620605469	1372.276123046875	194.5245666503906	200.1384735107422	1306.024780273438	340.2912292480469	78.79305267333984	1235.74658203125	160.2063446044922	250.4109497070312	1337.1806640625	146.9292907714844	326.5672302246094	1353.059204101562	212.8625946044922	403.8861694335938	1248.349365234375	174.1507568359375	498.2835083007812	1069.693115234375	201.1053161621094	432.1521606445312	1022.145629882812	174.2095184326172	594.5228271484375	883.2708740234375	350.6509704589844	627.6155395507812	871.8131103515625	290.334228515625	550.34228515625	982.7276611328125	227.7069702148438	669.1416015625	743.0411376953125	391.7213439941406	652.829833984375	809.1336059570312	305.9497680664062	647.5057983398438	824.5034790039062	368.4564514160156	20.99961471557617	1357.064575195312	293.2049560546875	-47.46376037597656	1301.752197265625	286.5035400390625	-109.2762832641602	1053.613159179688	213.0367584228516	-20.88815116882324	1042.950073242188	181.2651672363281	-116.7987213134766	799.617431640625	247.5857543945312	-181.62646484375	812.2315063476562	207.2066650390625	-133.6602020263672	987.0952758789062	216.3198089599609	-158.2870788574219	638.606689453125	196.5048675537109	-153.9457244873047	698.9385986328125	236.1390838623047	-196.5247039794922	730.302734375	189.4889526367188	103.6779861450195	1578.92431640625	292.9685363769531	254.5929412841797	1550.97314453125	432.7269592285156	154.3924102783203	1551.097534179688	444.6839294433594	241.2110748291016	1581.06787109375	249.1372528076172	281.1159973144531	902.12109375	126.3764190673828	-0.510319709777832	875.0901489257812	320.6914978027344	93.97800445556641	906.7838745117188	379.9668884277344	303.2098083496094	914.0194702148438	262.2450561523438	241.1259765625	450.5566711425781	91.07872009277344	269.4574584960938	585.5205078125	114.0297393798828	99.44680023193359	59.81568908691406	-57.93870544433594	182.7059631347656	247.9763336181641	5.625974178314209	210.5132751464844	37.30121612548828	122.0418548583984	130.9220123291016	27.45213890075684	107.0583801269531	198.5072021484375	39.29460906982422	14.47998237609863	29.3265552520752	62.97607803344727	-29.49674415588379	166.0262145996094	436.8989868164062	428.1636047363281	69.57881164550781	680.6001586914062	412.944580078125	295.8072814941406	43.37328720092773	485.5401306152344	208.3583831787109	335.8280944824219	463.845947265625	384.782470703125	114.6417388916016	647.3720703125	414.5564880371094	95.18926239013672	587.8369750976562	301.6902465820312	59.99365997314453	587.2329711914062	327.2184753417969	38.43316650390625	423.67578125	nan	nan	nan	
336	3.35	41.67968368530273	935.492431640625	202.3313751220703	149.1104278564453	954.1126708984375	132.1509094238281	100.1269760131836	1012.064514160156	164.1256713867188	215.0387878417969	1175.616943359375	379.8919677734375	120.5541534423828	1129.617065429688	152.0979461669922	163.8843688964844	1371.028564453125	202.9016723632812	204.8381652832031	1304.555419921875	348.7593994140625	83.86484527587891	1234.402709960938	168.2656402587891	255.2589721679688	1336.083374023438	155.2771148681641	331.356201171875	1351.6689453125	221.3930358886719	408.4362487792969	1246.798706054688	182.6836700439453	502.2990417480469	1067.991088867188	209.9447021484375	436.2593994140625	1020.494873046875	182.5688629150391	596.8431396484375	883.1703491210938	361.9249877929688	630.8621215820312	871.0908813476562	302.2531127929688	554.1452026367188	981.4153442382812	237.4605102539062	670.8890991210938	743.5422973632812	405.7865905761719	655.8252563476562	808.5556640625	318.9850158691406	649.5309448242188	824.6500854492188	381.2146301269531	25.61719703674316	1355.471069335938	301.3521423339844	-42.7016487121582	1299.864868164062	294.3228149414062	-102.9286651611328	1051.55712890625	219.9669952392578	-14.34161758422852	1041.387329101562	188.6494903564453	-110.3244018554688	797.3357543945312	252.3197784423828	-175.1082458496094	810.4029541015625	211.9651641845703	-127.2578277587891	985.1127319335938	222.7827911376953	-151.2168121337891	637.0103759765625	198.2397613525391	-147.0497131347656	696.6807250976562	239.0137329101562	-189.7257537841797	728.6923217773438	192.8567352294922	108.3635482788086	1577.613403320312	300.8645629882812	258.9326477050781	1549.907348632812	441.0365295410156	158.7161407470703	1550.03759765625	452.7383422851562	245.9813079833984	1579.740966796875	257.3470458984375	286.3406066894531	901.041259765625	133.8372650146484	5.340864658355713	873.3955078125	328.8432312011719	99.99491882324219	905.1162719726562	387.9402160644531	309.1759338378906	912.6682739257812	269.6243896484375	245.4614715576172	450.1853637695312	96.23078918457031	274.1112060546875	584.8321533203125	119.9325866699219	100.3784942626953	62.18558120727539	-57.71863174438477	185.2397308349609	248.8546295166016	8.52705192565918	210.7167510986328	37.20082473754883	122.1760101318359	131.1290893554688	27.76578903198242	107.1212768554688	199.0109100341797	39.61993408203125	14.68002033233643	30.19474601745605	65.93393707275391	-29.41891098022461	171.9478912353516	435.5508728027344	436.4404602050781	76.1998291015625	679.469482421875	421.2099914550781	300.8746337890625	42.72528076171875	493.1347045898438	213.9402465820312	334.5759887695312	471.7351684570312	388.5181274414062	113.4087524414062	655.8234252929688	418.8335571289062	93.91908264160156	596.5859375	305.7901916503906	59.09431076049805	595.0208129882812	333.0097045898438	37.76247787475586	431.7274780273438	nan	nan	nan	
